<svg width="64" height="64" viewBox="0 0 64 64" xmlns="http://www.w3.org/2000/svg" shape-rendering="crispEdges">
  <!-- Ice Storm King Boss -->
  <!-- Crown -->
  <rect x="20" y="4" width="4" height="8" fill="#00BFFF"/>
  <rect x="28" y="2" width="8" height="10" fill="#00BFFF"/>
  <rect x="40" y="4" width="4" height="8" fill="#00BFFF"/>
  <rect x="24" y="8" width="16" height="4" fill="#1E90FF"/>
  <!-- Head -->
  <rect x="22" y="12" width="20" height="16" fill="#87CEEB"/>
  <rect x="26" y="16" width="4" height="4" fill="#FFFFFF"/>
  <rect x="34" y="16" width="4" height="4" fill="#FFFFFF"/>
  <rect x="28" y="24" width="8" height="2" fill="#4169E1"/>
  <!-- Glow effect -->
  <rect x="18" y="14" width="4" height="12" fill="#00BFFF" opacity="0.5"/>
  <rect x="42" y="14" width="4" height="12" fill="#00BFFF" opacity="0.5"/>
  <!-- Body -->
  <rect x="18" y="28" width="28" height="20" fill="#4169E1"/>
  <rect x="22" y="30" width="20" height="16" fill="#1E90FF"/>
  <!-- Arms -->
  <rect x="10" y="30" width="8" height="4" fill="#4169E1"/>
  <rect x="46" y="30" width="8" height="4" fill="#4169E1"/>
  <rect x="8" y="34" width="4" height="8" fill="#00BFFF"/>
  <rect x="52" y="34" width="4" height="8" fill="#00BFFF"/>
  <!-- Lightning bolts in hands -->
  <rect x="6" y="42" width="2" height="6" fill="#FFFF00"/>
  <rect x="8" y="44" width="2" height="6" fill="#FFFF00"/>
  <rect x="56" y="42" width="2" height="6" fill="#FFFF00"/>
  <rect x="54" y="44" width="2" height="6" fill="#FFFF00"/>
  <!-- Legs -->
  <rect x="22" y="48" width="8" height="12" fill="#4169E1"/>
  <rect x="34" y="48" width="8" height="12" fill="#4169E1"/>
  <!-- Feet -->
  <rect x="20" y="58" width="12" height="4" fill="#1E90FF"/>
  <rect x="32" y="58" width="12" height="4" fill="#1E90FF"/>
  <!-- Aura glow -->
  <rect x="16" y="12" width="2" height="40" fill="#00BFFF" opacity="0.3"/>
  <rect x="46" y="12" width="2" height="40" fill="#00BFFF" opacity="0.3"/>
  <rect x="14" y="20" width="2" height="24" fill="#87CEFA" opacity="0.2"/>
  <rect x="48" y="20" width="2" height="24" fill="#87CEFA" opacity="0.2"/>
</svg>