<svg width="32" height="32" viewBox="0 0 32 32" xmlns="http://www.w3.org/2000/svg" shape-rendering="crispEdges">
  <!-- Blue winter coat and hood: #4682B4 (SteelBlue) -->
  <rect x="12" y="3" width="8" height="1" fill="#4682B4" />
  <rect x="11" y="4" width="10" height="1" fill="#4682B4" />
  <rect x="10" y="5" width="12" height="1" fill="#4682B4" />
  <rect x="9" y="6" width="14" height="1" fill="#4682B4" />
  <rect x="8" y="7" width="16" height="1" fill="#4682B4" />
  <rect x="8" y="8" width="16" height="1" fill="#4682B4" />
  <rect x="9" y="9" width="14" height="1" fill="#4682B4" />
  <rect x="10" y="10" width="12" height="1" fill="#4682B4" />

  <!-- Main body of the coat -->
  <rect x="7" y="13" width="18" height="1" fill="#4682B4" />
  <rect x="6" y="14" width="20" height="1" fill="#4682B4" />
  <rect x="5" y="15" width="22" height="1" fill="#4682B4" />
  <rect x="5" y="16" width="22" height="1" fill="#4682B4" />
  <rect x="5" y="17" width="22" height="1" fill="#4682B4" />
  <rect x="4" y="18" width="24" height="1" fill="#4682B4" />
  <rect x="4" y="19" width="24" height="1" fill="#4682B4" />
  <rect x="4" y="20" width="24" height="1" fill="#4682B4" />
  <rect x="4" y="21" width="24" height="1" fill="#4682B4" />
  <rect x="3" y="22" width="26" height="1" fill="#4682B4" />
  <rect x="3" y="23" width="26" height="1" fill="#4682B4" />
  <rect x="3" y="24" width="26" height="1" fill="#4682B4" />
  <rect x="2" y="25" width="28" height="1" fill="#4682B4" />
  <rect x="2" y="26" width="28" height="1" fill="#4682B4" />
  <rect x="2" y="27" width="28" height="1" fill="#4682B4" />
  <rect x="2" y="28" width="28" height="1" fill="#4682B4" />

  <!-- Black goggles outline: #000000 -->
  <rect x="11" y="6" width="10" height="1" fill="#000000" />
  <rect x="10" y="7" width="3" height="1" fill="#000000" />
  <rect x="19" y="7" width="3" height="1" fill="#000000" />
  <rect x="10" y="8" width="3" height="1" fill="#000000" />
  <rect x="19" y="8" width="3" height="1" fill="#000000" />
  <rect x="11" y="9" width="10" height="1" fill="#000000" />

  <!-- White goggles lens/reflection: #FFFFFF -->
  <rect x="13" y="7" width="6" height="1" fill="#FFFFFF" />
  <rect x="13" y="8" width="6" height="1" fill="#FFFFFF" />

  <!-- Red scarf: #DC143C (Crimson) -->
  <rect x="8" y="11" width="16" height="1" fill="#DC143C" />
  <rect x="8" y="12" width="16" height="1" fill="#DC143C" />
</svg>
