<svg width="32" height="32" viewBox="0 0 32 32" xmlns="http://www.w3.org/2000/svg">
  <!-- Light Grey Outline for Ears (#E0E0E0) -->
  <rect x="10" y="0" width="4" height="1" fill="#E0E0E0"/> <!-- Left ear top -->
  <rect x="18" y="0" width="4" height="1" fill="#E0E0E0"/> <!-- Right ear top -->
  <rect x="9" y="1" width="1" height="1" fill="#E0E0E0"/> <!-- Left ear left side -->
  <rect x="14" y="1" width="1" height="1" fill="#E0E0E0"/> <!-- Left ear right side -->
  <rect x="17" y="1" width="1" height="1" fill="#E0E0E0"/> <!-- Right ear left side -->
  <rect x="22" y="1" width="1" height="1" fill="#E0E0E0"/> <!-- Right ear right side -->
  <rect x="8" y="2" width="1" height="1" fill="#E0E0E0"/> <!-- Left ear lower left side -->
  <rect x="15" y="2" width="1" height="1" fill="#E0E0E0"/> <!-- Left ear lower right side -->
  <rect x="16" y="2" width="1" height="1" fill="#E0E0E0"/> <!-- Right ear lower left side -->
  <rect x="23" y="2" width="1" height="1" fill="#E0E0E0"/> <!-- Right ear lower right side -->
  <rect x="7" y="3" width="1" height="1" fill="#E0E0E0"/> <!-- Head outline transition left -->
  <rect x="24" y="3" width="1" height="1" fill="#E0E0E0"/> <!-- Head outline transition right -->

  <!-- White Fur Body and Ears (#FFFFFF) -->
  <rect x="10" y="1" width="4" height="1" fill="#FFFFFF"/> <!-- Left ear white top -->
  <rect x="18" y="1" width="4" height="1" fill="#FFFFFF"/> <!-- Right ear white top -->
  <rect x="9" y="2" width="6" height="1" fill="#FFFFFF"/> <!-- Left ear white middle -->
  <rect x="17" y="2" width="6" height="1" fill="#FFFFFF"/> <!-- Right ear white middle -->
  <rect x="8" y="3" width="16" height="1" fill="#FFFFFF"/> <!-- Head top -->
  <rect x="6" y="4" width="20" height="1" fill="#FFFFFF"/>
  <rect x="5" y="5" width="22" height="1" fill="#FFFFFF"/>
  <rect x="4" y="6" width="24" height="1" fill="#FFFFFF"/>
  <rect x="3" y="7" width="26" height="1" fill="#FFFFFF"/>
  <rect x="2" y="8" width="28" height="1" fill="#FFFFFF"/>
  <rect x="1" y="9" width="30" height="1" fill="#FFFFFF"/>
  <rect x="0" y="10" width="32" height="4" fill="#FFFFFF"/> <!-- Main body central block -->
  <rect x="1" y="14" width="30" height="1" fill="#FFFFFF"/>
  <rect x="2" y="15" width="28" height="1" fill="#FFFFFF"/>
  <rect x="3" y="16" width="26" height="1" fill="#FFFFFF"/>
  <rect x="4" y="17" width="24" height="1" fill="#FFFFFF"/>
  <rect x="5" y="18" width="22" height="1" fill="#FFFFFF"/>
  <rect x="6" y="19" width="20" height="1" fill="#FFFFFF"/>
  <rect x="7" y="20" width="18" height="1" fill="#FFFFFF"/>
  <rect x="8" y="21" width="16" height="1" fill="#FFFFFF"/>
  <rect x="9" y="22" width="14" height="1" fill="#FFFFFF"/>
  <rect x="10" y="23" width="12" height="1" fill="#FFFFFF"/>
  <rect x="11" y="24" width="10" height="1" fill="#FFFFFF"/>
  <rect x="12" y="25" width="8" height="1" fill="#FFFFFF"/>
  <rect x="13" y="26" width="6" height="1" fill="#FFFFFF"/>

  <!-- Pink Inner Ears and Nose (#FFC0CB) -->
  <rect x="11" y="2" width="2" height="1" fill="#FFC0CB"/> <!-- Left inner ear -->
  <rect x="19" y="2" width="2" height="1" fill="#FFC0CB"/> <!-- Right inner ear -->
  <rect x="15" y="10" width="2" height="1" fill="#FFC0CB"/> <!-- Nose -->

  <!-- Black Eyes (#000000) -->
  <rect x="11" y="8" width="2" height="1" fill="#000000"/> <!-- Left eye -->
  <rect x="19" y="8" width="2" height="1" fill="#000000"/> <!-- Right eye -->
</svg>
